<svg xmlns="http://www.w3.org/2000/svg" viewBox="0 0 256 256" role="img" aria-labelledby="title desc">
  <title id="title">GenG Edge logo</title>
  <desc id="desc">A blue and green circular market arrow with candlestick bars.</desc>
  <defs>
    <linearGradient id="edge" x1="24" y1="232" x2="224" y2="24" gradientUnits="userSpaceOnUse">
      <stop stop-color="#1479ed"/><stop offset=".52" stop-color="#10c7e8"/><stop offset="1" stop-color="#43ee7a"/>
    </linearGradient>
  </defs>
  <path fill="url(#edge)" d="M218 34h-67c-50 0-91 41-91 91 0 14 3 27 9 39l17-9c-4-9-6-19-6-30 0-39 32-71 71-71h32l-26 26h52l29-46Z"/>
  <path fill="url(#edge)" d="m119 108 25-28h46l-27 28h-44Zm91 10v58c0 10-8 18-18 18H101c-13 0-24-11-24-24v-8l19 10c4 2 8 3 13 3h72v-57h29Z"/>
  <path fill="url(#edge)" d="m148 143 57-57-17-17 59-18-11 60-17-17-57 57-14-8Z"/>
  <g fill="#39ed79" stroke="#39ed79" stroke-width="5">
    <path d="M94 140h22v17H94zM105 122v49"/>
    <path d="M123 128h22v19h-22zM134 109v54"/>
    <path d="M153 115h22v20h-22zM164 96v56"/>
  </g>
</svg>
